<mxfile host="app.diagrams.net" modified="2021-11-23T09:49:51.033Z" agent="5.0 (Windows NT 10.0; Win64; x64) AppleWebKit/537.36 (KHTML, like Gecko) Chrome/96.0.4664.45 Safari/537.36" etag="2vsZ1Evrpduht3DRD46Z" version="15.7.0" type="github">
  <diagram id="-OVXYqF1ISqxvW4ro76h" name="Page-1">
    <mxGraphModel dx="1697" dy="861" grid="1" gridSize="10" guides="1" tooltips="1" connect="1" arrows="1" fold="1" page="1" pageScale="1" pageWidth="850" pageHeight="1100" math="0" shadow="0">
      <root>
        <mxCell id="0" />
        <mxCell id="1" parent="0" />
        <mxCell id="wu8RO1vjM-PzpngTwkl7-8" style="edgeStyle=orthogonalEdgeStyle;rounded=0;orthogonalLoop=1;jettySize=auto;html=1;" edge="1" parent="1" source="9NGQ-bVeFmYUHEI6Ub1f-19">
          <mxGeometry relative="1" as="geometry">
            <mxPoint x="480" y="390" as="targetPoint" />
            <Array as="points">
              <mxPoint x="405" y="390" />
            </Array>
          </mxGeometry>
        </mxCell>
        <mxCell id="9NGQ-bVeFmYUHEI6Ub1f-19" value="Cores" style="text;html=1;resizable=0;autosize=1;align=center;verticalAlign=middle;points=[];fillColor=none;strokeColor=none;rounded=0;shadow=0;glass=0;sketch=0;fontStyle=1" parent="1" vertex="1">
          <mxGeometry x="380.24" y="307.5" width="50" height="20" as="geometry" />
        </mxCell>
        <mxCell id="9NGQ-bVeFmYUHEI6Ub1f-20" value="&lt;font style=&quot;font-size: 10px&quot;&gt;Weave Symbols&lt;/font&gt;" style="text;html=1;resizable=0;autosize=1;align=center;verticalAlign=middle;points=[];fillColor=none;strokeColor=none;rounded=0;shadow=0;glass=0;sketch=0;fontStyle=1" parent="1" vertex="1">
          <mxGeometry x="700" y="352.06" width="90" height="20" as="geometry" />
        </mxCell>
        <mxCell id="9NGQ-bVeFmYUHEI6Ub1f-27" value="Cluster" style="text;html=1;resizable=0;autosize=1;align=center;verticalAlign=middle;points=[];fillColor=none;strokeColor=none;rounded=0;shadow=0;glass=0;sketch=0;fontStyle=1" parent="1" vertex="1">
          <mxGeometry x="604.2" y="407.94000000000005" width="60" height="20" as="geometry" />
        </mxCell>
        <mxCell id="9NGQ-bVeFmYUHEI6Ub1f-28" value="Extra Script" style="text;html=1;resizable=0;autosize=1;align=center;verticalAlign=middle;points=[];fillColor=none;strokeColor=none;rounded=0;shadow=0;glass=0;sketch=0;fontStyle=1" parent="1" vertex="1">
          <mxGeometry x="820" y="330.51" width="80" height="20" as="geometry" />
        </mxCell>
        <mxCell id="9NGQ-bVeFmYUHEI6Ub1f-33" value="" style="verticalLabelPosition=bottom;html=1;fillColor=#282828;strokeColor=none;verticalAlign=top;pointerEvents=1;align=center;shape=mxgraph.cisco_safe.people_places_things_icons.icon9;" parent="1" vertex="1">
          <mxGeometry x="25" y="213.75" width="50" height="45" as="geometry" />
        </mxCell>
        <mxCell id="9NGQ-bVeFmYUHEI6Ub1f-34" value="" style="shadow=0;dashed=0;html=1;strokeColor=none;fillColor=#505050;labelPosition=center;verticalLabelPosition=bottom;verticalAlign=top;outlineConnect=0;align=center;shape=mxgraph.office.databases.web_store;" parent="1" vertex="1">
          <mxGeometry x="145" y="190" width="70" height="92.5" as="geometry" />
        </mxCell>
        <mxCell id="9NGQ-bVeFmYUHEI6Ub1f-35" value="" style="endArrow=classic;html=1;" parent="1" source="9NGQ-bVeFmYUHEI6Ub1f-33" target="9NGQ-bVeFmYUHEI6Ub1f-34" edge="1">
          <mxGeometry width="50" height="50" relative="1" as="geometry">
            <mxPoint x="425" y="313.75" as="sourcePoint" />
            <mxPoint x="475" y="263.75" as="targetPoint" />
          </mxGeometry>
        </mxCell>
        <mxCell id="9NGQ-bVeFmYUHEI6Ub1f-36" value="Customer" style="text;html=1;resizable=0;autosize=1;align=center;verticalAlign=middle;points=[];fillColor=none;strokeColor=none;rounded=0;shadow=0;glass=0;sketch=0;fontStyle=1" parent="1" vertex="1">
          <mxGeometry x="10" y="269.38" width="70" height="20" as="geometry" />
        </mxCell>
        <mxCell id="9NGQ-bVeFmYUHEI6Ub1f-37" value="LogStore" style="text;html=1;resizable=0;autosize=1;align=center;verticalAlign=middle;points=[];fillColor=none;strokeColor=none;rounded=0;shadow=0;glass=0;sketch=0;fontStyle=1" parent="1" vertex="1">
          <mxGeometry x="135" y="287.5" width="70" height="20" as="geometry" />
        </mxCell>
        <mxCell id="9NGQ-bVeFmYUHEI6Ub1f-40" value="" style="pointerEvents=1;shadow=0;dashed=0;html=1;strokeColor=none;fillColor=#005F4B;labelPosition=center;verticalLabelPosition=bottom;verticalAlign=top;align=center;outlineConnect=0;shape=mxgraph.veeam2.folder;" parent="1" vertex="1">
          <mxGeometry x="276" y="200" width="59.9" height="48.63" as="geometry" />
        </mxCell>
        <mxCell id="9NGQ-bVeFmYUHEI6Ub1f-41" value="" style="verticalLabelPosition=bottom;html=1;verticalAlign=top;strokeWidth=1;dashed=0;shape=mxgraph.aws3d.simpleDb2;fillColor=#004C99;strokeColor=#99CCFF;aspect=fixed;rounded=1;shadow=0;comic=0;fontSize=12" parent="1" vertex="1">
          <mxGeometry x="270" y="210" width="55.95" height="59.38" as="geometry" />
        </mxCell>
        <mxCell id="9NGQ-bVeFmYUHEI6Ub1f-42" value="" style="verticalLabelPosition=bottom;html=1;verticalAlign=top;strokeWidth=1;dashed=0;shape=mxgraph.aws3d.dataCenter;fillColor=#ffffff;strokeColor=#5E5E5E;aspect=fixed;rounded=1;shadow=0;comic=0;fontSize=12" parent="1" vertex="1">
          <mxGeometry x="464.31000000000006" y="236.74" width="48.4" height="55.88" as="geometry" />
        </mxCell>
        <mxCell id="9NGQ-bVeFmYUHEI6Ub1f-43" value="" style="verticalLabelPosition=bottom;html=1;verticalAlign=top;strokeWidth=1;dashed=0;shape=mxgraph.aws3d.dataCenter;fillColor=#ffffff;strokeColor=#5E5E5E;aspect=fixed;rounded=1;shadow=0;comic=0;fontSize=12" parent="1" vertex="1">
          <mxGeometry x="486.90999999999997" y="250.49" width="48.4" height="55.88" as="geometry" />
        </mxCell>
        <mxCell id="9NGQ-bVeFmYUHEI6Ub1f-44" value="" style="verticalLabelPosition=bottom;html=1;verticalAlign=top;strokeWidth=1;dashed=0;shape=mxgraph.aws3d.dataCenter;fillColor=#ffffff;strokeColor=#5E5E5E;aspect=fixed;rounded=1;shadow=0;comic=0;fontSize=12" parent="1" vertex="1">
          <mxGeometry x="509.30999999999995" y="263.6200000000001" width="48.4" height="55.88" as="geometry" />
        </mxCell>
        <mxCell id="9NGQ-bVeFmYUHEI6Ub1f-45" value="" style="fontStyle=0;verticalAlign=top;align=center;spacingTop=-2;rounded=0;whiteSpace=wrap;html=1;strokeColor=#6c8ebf;strokeWidth=2;dashed=1;container=1;collapsible=0;expand=0;recursiveResize=0;shadow=0;fillColor=#dae8fc;sketch=0;glass=0;" parent="1" vertex="1">
          <mxGeometry x="807.49" y="178.84000000000003" width="109.51" height="59.65" as="geometry" />
        </mxCell>
        <mxCell id="9NGQ-bVeFmYUHEI6Ub1f-46" value="&lt;b style=&quot;font-size: 16px&quot;&gt;Stack/Panic Info&lt;/b&gt;" style="fontStyle=0;verticalAlign=top;align=center;spacingTop=-2;fillColor=#dae8fc;rounded=0;whiteSpace=wrap;html=1;strokeColor=#6c8ebf;strokeWidth=2;dashed=1;container=1;collapsible=0;expand=0;recursiveResize=0;" parent="1" vertex="1">
          <mxGeometry x="790" y="188.4899999999999" width="110" height="57" as="geometry" />
        </mxCell>
        <mxCell id="9NGQ-bVeFmYUHEI6Ub1f-52" value="" style="shape=curlyBracket;whiteSpace=wrap;html=1;rounded=1;size=0.5;" parent="1" vertex="1">
          <mxGeometry x="340" y="170.35000000000002" width="50" height="112.15" as="geometry" />
        </mxCell>
        <mxCell id="9NGQ-bVeFmYUHEI6Ub1f-53" value="" style="pointerEvents=1;shadow=0;dashed=0;html=1;strokeColor=none;fillColor=#005F4B;labelPosition=center;verticalLabelPosition=bottom;verticalAlign=top;align=center;outlineConnect=0;shape=mxgraph.veeam2.folder;" parent="1" vertex="1">
          <mxGeometry x="378" y="140" width="42" height="43" as="geometry" />
        </mxCell>
        <mxCell id="wu8RO1vjM-PzpngTwkl7-7" style="edgeStyle=orthogonalEdgeStyle;rounded=0;orthogonalLoop=1;jettySize=auto;html=1;" edge="1" parent="1" source="9NGQ-bVeFmYUHEI6Ub1f-54">
          <mxGeometry relative="1" as="geometry">
            <mxPoint x="460" y="280.56999999999994" as="targetPoint" />
          </mxGeometry>
        </mxCell>
        <mxCell id="9NGQ-bVeFmYUHEI6Ub1f-54" value="" style="verticalLabelPosition=bottom;html=1;verticalAlign=top;strokeWidth=1;dashed=0;shape=mxgraph.aws3d.simpleDb2;fillColor=#004C99;strokeColor=#99CCFF;aspect=fixed;rounded=1;shadow=0;comic=0;fontSize=12" parent="1" vertex="1">
          <mxGeometry x="384.68" y="258.75" width="41.12" height="43.64" as="geometry" />
        </mxCell>
        <mxCell id="wu8RO1vjM-PzpngTwkl7-17" style="edgeStyle=orthogonalEdgeStyle;rounded=0;orthogonalLoop=1;jettySize=auto;html=1;" edge="1" parent="1" source="9NGQ-bVeFmYUHEI6Ub1f-55">
          <mxGeometry relative="1" as="geometry">
            <mxPoint x="820" y="316" as="targetPoint" />
          </mxGeometry>
        </mxCell>
        <mxCell id="9NGQ-bVeFmYUHEI6Ub1f-55" value="" style="pointerEvents=1;shadow=0;dashed=0;html=1;strokeColor=none;fillColor=#005F4B;labelPosition=center;verticalLabelPosition=bottom;verticalAlign=top;align=center;outlineConnect=0;shape=mxgraph.veeam2.service_application;glass=0;sketch=0;" parent="1" vertex="1">
          <mxGeometry x="700" y="276" width="80" height="80" as="geometry" />
        </mxCell>
        <mxCell id="9NGQ-bVeFmYUHEI6Ub1f-57" value="" style="pointerEvents=1;shadow=0;dashed=0;html=1;strokeColor=none;fillColor=#005F4B;labelPosition=center;verticalLabelPosition=bottom;verticalAlign=top;align=center;outlineConnect=0;shape=mxgraph.veeam2.automation;glass=0;sketch=0;" parent="1" vertex="1">
          <mxGeometry x="830" y="289.38" width="50" height="44" as="geometry" />
        </mxCell>
        <mxCell id="9NGQ-bVeFmYUHEI6Ub1f-58" value="" style="edgeStyle=elbowEdgeStyle;elbow=horizontal;endArrow=classic;html=1;" parent="1" source="9NGQ-bVeFmYUHEI6Ub1f-53" target="9NGQ-bVeFmYUHEI6Ub1f-46" edge="1">
          <mxGeometry width="50" height="50" relative="1" as="geometry">
            <mxPoint x="510" y="160" as="sourcePoint" />
            <mxPoint x="560" y="110" as="targetPoint" />
            <Array as="points">
              <mxPoint x="640" y="217" />
            </Array>
          </mxGeometry>
        </mxCell>
        <mxCell id="wu8RO1vjM-PzpngTwkl7-12" style="edgeStyle=orthogonalEdgeStyle;rounded=0;orthogonalLoop=1;jettySize=auto;html=1;" edge="1" parent="1" source="9NGQ-bVeFmYUHEI6Ub1f-62" target="9NGQ-bVeFmYUHEI6Ub1f-55">
          <mxGeometry relative="1" as="geometry">
            <Array as="points">
              <mxPoint x="683" y="282" />
              <mxPoint x="683" y="312" />
            </Array>
          </mxGeometry>
        </mxCell>
        <mxCell id="9NGQ-bVeFmYUHEI6Ub1f-62" value="" style="verticalLabelPosition=bottom;html=1;verticalAlign=top;strokeWidth=1;dashed=0;shape=mxgraph.aws3d.dataCenter;fillColor=#ffffff;strokeColor=#5E5E5E;aspect=fixed;rounded=1;shadow=0;comic=0;fontSize=12" parent="1" vertex="1">
          <mxGeometry x="609.9999999999998" y="254.24000000000012" width="48.4" height="55.88" as="geometry" />
        </mxCell>
        <mxCell id="9NGQ-bVeFmYUHEI6Ub1f-63" value="" style="shadow=0;dashed=0;html=1;strokeColor=none;fillColor=#505050;labelPosition=center;verticalLabelPosition=bottom;verticalAlign=top;outlineConnect=0;align=center;shape=mxgraph.office.databases.database_server_green;" parent="1" vertex="1">
          <mxGeometry x="970" y="176.99" width="70" height="60" as="geometry" />
        </mxCell>
        <mxCell id="9NGQ-bVeFmYUHEI6Ub1f-64" value="" style="pointerEvents=1;shadow=0;dashed=0;html=1;strokeColor=none;fillColor=#005F4B;labelPosition=center;verticalLabelPosition=bottom;verticalAlign=top;align=center;outlineConnect=0;shape=mxgraph.veeam2.file;glass=0;sketch=0;" parent="1" vertex="1">
          <mxGeometry x="1100" y="178.01" width="30" height="43.47" as="geometry" />
        </mxCell>
        <mxCell id="9NGQ-bVeFmYUHEI6Ub1f-65" value="" style="endArrow=classic;html=1;" parent="1" source="9NGQ-bVeFmYUHEI6Ub1f-63" edge="1">
          <mxGeometry width="50" height="50" relative="1" as="geometry">
            <mxPoint x="700" y="303.49" as="sourcePoint" />
            <mxPoint x="1090" y="206.7659090909092" as="targetPoint" />
          </mxGeometry>
        </mxCell>
        <mxCell id="9NGQ-bVeFmYUHEI6Ub1f-66" value="" style="pointerEvents=1;shadow=0;dashed=0;html=1;strokeColor=none;fillColor=#005F4B;labelPosition=center;verticalLabelPosition=bottom;verticalAlign=top;align=center;outlineConnect=0;shape=mxgraph.veeam2.file;glass=0;sketch=0;" parent="1" vertex="1">
          <mxGeometry x="1090" y="188.03999999999996" width="30" height="43.47" as="geometry" />
        </mxCell>
        <mxCell id="9NGQ-bVeFmYUHEI6Ub1f-67" value="Jira/Bugzilla" style="text;html=1;resizable=0;autosize=1;align=center;verticalAlign=middle;points=[];fillColor=none;strokeColor=none;rounded=0;shadow=0;glass=0;sketch=0;fontStyle=1" parent="1" vertex="1">
          <mxGeometry x="940" y="238.75" width="90" height="20" as="geometry" />
        </mxCell>
        <mxCell id="9NGQ-bVeFmYUHEI6Ub1f-68" value="Known Bugs" style="text;html=1;resizable=0;autosize=1;align=center;verticalAlign=middle;points=[];fillColor=none;strokeColor=none;rounded=0;shadow=0;glass=0;sketch=0;fontStyle=1" parent="1" vertex="1">
          <mxGeometry x="1070" y="236.99" width="90" height="20" as="geometry" />
        </mxCell>
        <mxCell id="9NGQ-bVeFmYUHEI6Ub1f-73" value="" style="endArrow=classic;html=1;entryX=0;entryY=0.55;entryDx=0;entryDy=0;entryPerimeter=0;" parent="1" target="9NGQ-bVeFmYUHEI6Ub1f-63" edge="1">
          <mxGeometry width="50" height="50" relative="1" as="geometry">
            <mxPoint x="930" y="210" as="sourcePoint" />
            <mxPoint x="950" y="223.75" as="targetPoint" />
          </mxGeometry>
        </mxCell>
        <mxCell id="9NGQ-bVeFmYUHEI6Ub1f-74" value="" style="verticalLabelPosition=bottom;html=1;fillColor=#282828;strokeColor=none;verticalAlign=top;pointerEvents=1;align=center;shape=mxgraph.cisco_safe.people_places_things_icons.icon9;" parent="1" vertex="1">
          <mxGeometry x="721.5999999999999" y="407.06" width="50" height="45" as="geometry" />
        </mxCell>
        <mxCell id="9NGQ-bVeFmYUHEI6Ub1f-76" value="" style="endArrow=classic;html=1;fillColor=#1ba1e2;strokeColor=#006EAF;strokeWidth=2;" parent="1" edge="1">
          <mxGeometry width="50" height="50" relative="1" as="geometry">
            <mxPoint x="746.2" y="372.06" as="sourcePoint" />
            <mxPoint x="746.5" y="402.06" as="targetPoint" />
          </mxGeometry>
        </mxCell>
        <mxCell id="9NGQ-bVeFmYUHEI6Ub1f-77" value="" style="endArrow=classic;html=1;" parent="1" source="9NGQ-bVeFmYUHEI6Ub1f-34" edge="1">
          <mxGeometry width="50" height="50" relative="1" as="geometry">
            <mxPoint x="510" y="320" as="sourcePoint" />
            <mxPoint x="260" y="239" as="targetPoint" />
          </mxGeometry>
        </mxCell>
        <mxCell id="9NGQ-bVeFmYUHEI6Ub1f-78" value="&lt;b&gt;Cores/Logs&lt;/b&gt;" style="text;html=1;resizable=0;autosize=1;align=center;verticalAlign=middle;points=[];fillColor=none;strokeColor=none;rounded=0;" parent="1" vertex="1">
          <mxGeometry x="261.38" y="282.5" width="80" height="20" as="geometry" />
        </mxCell>
        <mxCell id="9NGQ-bVeFmYUHEI6Ub1f-79" value="logs" style="text;html=1;resizable=0;autosize=1;align=center;verticalAlign=middle;points=[];fillColor=none;strokeColor=none;rounded=0;shadow=0;glass=0;sketch=0;fontStyle=1" parent="1" vertex="1">
          <mxGeometry x="379.68" y="190" width="40" height="20" as="geometry" />
        </mxCell>
        <mxCell id="9NGQ-bVeFmYUHEI6Ub1f-80" value="Cluster Pools" style="text;html=1;resizable=0;autosize=1;align=center;verticalAlign=middle;points=[];fillColor=none;strokeColor=none;rounded=0;shadow=0;glass=0;sketch=0;fontStyle=1" parent="1" vertex="1">
          <mxGeometry x="467.71" y="315.87" width="90" height="20" as="geometry" />
        </mxCell>
        <mxCell id="9NGQ-bVeFmYUHEI6Ub1f-81" value="engineer" style="text;html=1;resizable=0;autosize=1;align=center;verticalAlign=middle;points=[];fillColor=none;strokeColor=none;rounded=0;shadow=0;glass=0;sketch=0;fontStyle=1" parent="1" vertex="1">
          <mxGeometry x="709.9999999999999" y="457.06000000000006" width="70" height="20" as="geometry" />
        </mxCell>
        <mxCell id="9NGQ-bVeFmYUHEI6Ub1f-83" value="" style="rounded=0;whiteSpace=wrap;html=1;fillColor=none;dashed=1;fontStyle=1;strokeWidth=3;" parent="1" vertex="1">
          <mxGeometry x="419.68" y="344.25" width="400.32" height="135.75" as="geometry" />
        </mxCell>
        <mxCell id="9NGQ-bVeFmYUHEI6Ub1f-84" value="&lt;font color=&quot;#ff0000&quot; style=&quot;font-size: 23px&quot;&gt;automatically&lt;/font&gt;" style="text;html=1;resizable=0;autosize=1;align=center;verticalAlign=middle;points=[];fillColor=none;strokeColor=none;rounded=0;shadow=0;glass=0;sketch=0;fontStyle=1;strokeWidth=2;" parent="1" vertex="1">
          <mxGeometry x="605.94" y="100" width="160" height="20" as="geometry" />
        </mxCell>
        <mxCell id="9NGQ-bVeFmYUHEI6Ub1f-85" value="&lt;font color=&quot;#ff0000&quot; style=&quot;font-size: 14px&quot;&gt;debug environment&lt;/font&gt;" style="text;html=1;resizable=0;autosize=1;align=center;verticalAlign=middle;points=[];fillColor=none;strokeColor=none;rounded=0;shadow=0;glass=0;sketch=0;fontStyle=1" parent="1" vertex="1">
          <mxGeometry x="544.84" y="452.06000000000006" width="150" height="20" as="geometry" />
        </mxCell>
        <mxCell id="9NGQ-bVeFmYUHEI6Ub1f-82" value="" style="rounded=0;whiteSpace=wrap;html=1;fillColor=none;dashed=1;fontStyle=1;strokeWidth=3;" parent="1" vertex="1">
          <mxGeometry x="250" y="89.99" width="818" height="253.01" as="geometry" />
        </mxCell>
        <mxCell id="wu8RO1vjM-PzpngTwkl7-9" style="edgeStyle=orthogonalEdgeStyle;rounded=0;orthogonalLoop=1;jettySize=auto;html=1;entryX=0;entryY=0.683;entryDx=0;entryDy=0;entryPerimeter=0;" edge="1" parent="1" source="wu8RO1vjM-PzpngTwkl7-3" target="wu8RO1vjM-PzpngTwkl7-4">
          <mxGeometry relative="1" as="geometry" />
        </mxCell>
        <mxCell id="wu8RO1vjM-PzpngTwkl7-3" value="" style="shape=image;imageAspect=0;aspect=fixed;verticalLabelPosition=bottom;verticalAlign=top;image=data:image/svg+xml,PHN2ZyB4bWxucz0iaHR0cDovL3d3dy53My5vcmcvMjAwMC9zdmciIHhtbG5zOnhsaW5rPSJodHRwOi8vd3d3LnczLm9yZy8xOTk5L3hsaW5rIiB2ZXJzaW9uPSIxLjEiIGlkPSJDYXBhXzEiIHg9IjBweCIgeT0iMHB4IiB2aWV3Qm94PSIxNC44NDMyODQ2MDY5MzM1OTQgLTAuMDAwMzUwOTUyMTQ4NDM3NSA0ODIuMzEzNzIwNzAzMTI1IDUxMi4wMDAzNjYyMTA5Mzc1IiBzdHlsZT0iZW5hYmxlLWJhY2tncm91bmQ6bmV3IDAgMCA1MTIgNTEyOyIgeG1sOnNwYWNlPSJwcmVzZXJ2ZSIgd2lkdGg9IjQ4Mi4zMTM3MjA3MDMxMjUiIGhlaWdodD0iNTEyLjAwMDM2NjIxMDkzNzUiPiYjeGE7PHBhdGggc3R5bGU9ImZpbGw6I0ZGREU3NjsiIGQ9Ik00MzMuNjYxLDIzNy44MzdjLTQuNDk3LTYuMjE0LTQuODgtMTQuNDQtMS4yMjUtMjEuMTg0YzExLjM2NS0yMC45NjcsMTcuNzczLTQ1LjAxNCwxNy42NTEtNzAuNTY2JiMxMDsmIzk7QzQ0OS43MDEsNjQuODY5LDM4Mi41NjQtMS4wMzcsMzAxLjM1MiwwLjAxMmMtODAuMTgzLDEuMDM2LTE0NC44NjQsNjYuMzU5LTE0NC44NjQsMTQ2Ljc4OGMwLDMyLjU1MywxMC41OTUsNjIuNjMsMjguNTI2LDg2Ljk3MiYjMTA7JiM5O2M3Ljc1MywxMC41MjYsNy4yMTMsMjUuMS0xLjU0MywzNC44MDhjLTEzLjI5NywxNC43NDEtNDEuOTM1LDI0LjMwNi0xMDIuNTk1LTE2LjI3N2MtNi42NTItNC40NS0xNC40NjItNi44NjQtMjIuNDY1LTYuODY0bDAsMCYjMTA7JiM5O2MtMTkuOTQ3LDAtMzYuODMzLDE0LjYyOC0zOS43NzYsMzQuMzU3QzcuODg5LDM1MS44MTYsNi41Miw1MTIsMjA2Ljk2Niw1MTJoNzEuMDgzQzQ2Ni4wNSw1MTIsNTE2LjEyNywzNTEuODAxLDQzMy42NjEsMjM3LjgzN3oiLz4mI3hhOzxnPiYjeGE7CTxwYXRoIHN0eWxlPSJmaWxsOiNGRkI2NDE7IiBkPSJNMTgzLjQ3LDI2OC41ODJjLTMuOTMsNC4zNTctOS4yMDIsOC4yNjEtMTYuMjQ0LDEwLjU1MmMyNC40NjksNS44ODIsMzguODItMS4zMTksNDcuMTQ5LTEwLjU1MiYjMTA7JiM5OyYjOTtjOC43NTctOS43MDgsOS4yOTYtMjQuMjgxLDEuNTQzLTM0LjgwOGMtMTcuOTMtMjQuMzQyLTI4LjUyNi01NC40Mi0yOC41MjYtODYuOTczYzAtNzUuODMzLDU3LjUwMy0xMzguMjI2LDEzMS4yODEtMTQ1Ljk4JiMxMDsmIzk7JiM5O2MtNS42ODktMC42MDEtMTEuNDY3LTAuODg0LTE3LjMyMy0wLjgwOWMtODAuMTgzLDEuMDM2LTE0NC44NjQsNjYuMzU5LTE0NC44NjQsMTQ2Ljc4OGMwLDMyLjU1MywxMC41OTUsNjIuNjMsMjguNTI2LDg2Ljk3MyYjMTA7JiM5OyYjOTtDMTkyLjc2NiwyNDQuMywxOTIuMjI2LDI1OC44NzMsMTgzLjQ3LDI2OC41ODJ6Ii8+JiN4YTsJPHBhdGggc3R5bGU9ImZpbGw6I0ZGQjY0MTsiIGQ9Ik00OS41MzksMjc5Ljc5NmMyLjEzNy0xNC4zMTcsMTEuNjE4LTI1Ljk0MiwyNC4yODItMzEuMjQ1Yy00Ljg2Ni0yLjAyMi0xMC4wOTEtMy4xMS0xNS40MTItMy4xMSYjMTA7JiM5OyYjOTtsMCwwYy0xOS45NDcsMC0zNi44MzMsMTQuNjI4LTM5Ljc3NiwzNC4zNTdDNy44ODksMzUxLjgxNiw2LjUyLDUxMiwyMDYuOTY2LDUxMmgzMC45MDVDMzcuNDI1LDUxMiwzOC43OTQsMzUxLjgxNiw0OS41MzksMjc5Ljc5NnomIzEwOyYjOTsmIzk7Ii8+JiN4YTsJPHBhdGggc3R5bGU9ImZpbGw6I0ZGQjY0MTsiIGQ9Ik04MC41MTgsMzQ0LjMzNmMtOC43NjYsOC42NTYtMTAuMjc3LDIyLjI2OC0zLjU5OCwzMi42MTkmIzEwOyYjOTsmIzk7YzE5LjUwNCwzMC4yMjcsNjguMzUxLDg2LjI4MywxNjIuMzcyLDg2LjI4M2M1Ny4yNTYsMCwxMTcuNzkxLTM1LjgwOSwxMjkuMDY0LTk1LjA5N2M5LjMxLTQ4Ljk2Ni0xOS4yNDYtMTA4LjgyMS03NS4zMy0xMDYuMjQ3JiMxMDsmIzk7JiM5O2MtNDEuMDk3LDEuODg3LTY1LjEzNSwzNy40MTUtOTkuODY1LDUzLjg0MWMtMjQuMzk4LDExLjU0LTUwLjg0NCwxOC42NTEtNzcuNjg3LDIxLjMwNyYjMTA7JiM5OyYjOTtDMTAyLjY5OCwzMzguMzA2LDkwLjgwNSwzMzQuMTc4LDgwLjUxOCwzNDQuMzM2eiIvPiYjeGE7PC9nPiYjeGE7PHBhdGggc3R5bGU9ImZpbGw6IzM4NDg0QTsiIGQ9Ik0zODguMzk0LDExMC44MzNjLTMuNTAyLDAtNi42NzQtMi4zOTYtNy41MTMtNS45NTFsLTMuNzE1LTE1LjczJiMxMDsmIzk7Yy0wLjk4MS00LjE1MywxLjU5MS04LjMxNSw1Ljc0My05LjI5NWM0LjE1Mi0wLjk3OSw4LjMxNSwxLjU5MSw5LjI5NSw1Ljc0M2wzLjcxNSwxNS43M2MwLjk4MSw0LjE1My0xLjU5MSw4LjMxNS01Ljc0Myw5LjI5NSYjMTA7JiM5O0MzODkuNTgsMTEwLjc2NSwzODguOTgyLDExMC44MzMsMzg4LjM5NCwxMTAuODMzeiIvPiYjeGE7PHBhdGggc3R5bGU9ImZpbGw6I0ZGQjY0MTsiIGQ9Ik00MjcuNjE4LDY4Ljk5NGMwLDAsMy4xOTgsNDUuODMyLTE4LjAzMyw2Ni41OTFjLTIxLjIzMSwyMC43NTksMTQuMTU0LDUzLjMxNCw1Ni4xNDUsMjIuNjQ2JiMxMDsmIzk7YzYuMDMyLTQuNDA1LDEyLjE0My03LjIwNCwxOC4xODQtOC43NjhjNy43NzctMi4wMTIsMTMuMjQzLTguOTY3LDEzLjI0My0xNi45OTlsMCwwYzAtNy43MjQtNS4wMzEtMTQuNTk3LTEyLjQzOC0xNi43ODYmIzEwOyYjOTtjLTQuOTI1LTEuNDU2LTExLjE4LTIuMzI1LTE4LjUxNi0xLjMyNWMwLDAsMjUuMzkzLTIyLjEzOCwxOS4xMTktNDcuNzUzYy0yLjAyNy04LjI4LTExLjg1Ni0xMS43MjYtMTguODM2LTYuODMyJiMxMDsmIzk7QzQ1Ny40NjEsNjYuMDk0LDQ0My40NTQsNzIuNzY0LDQyNy42MTgsNjguOTk0eiIvPiYjeGE7PGc+JiN4YTs8L2c+JiN4YTs8Zz4mI3hhOzwvZz4mI3hhOzxnPiYjeGE7PC9nPiYjeGE7PGc+JiN4YTs8L2c+JiN4YTs8Zz4mI3hhOzwvZz4mI3hhOzxnPiYjeGE7PC9nPiYjeGE7PGc+JiN4YTs8L2c+JiN4YTs8Zz4mI3hhOzwvZz4mI3hhOzxnPiYjeGE7PC9nPiYjeGE7PGc+JiN4YTs8L2c+JiN4YTs8Zz4mI3hhOzwvZz4mI3hhOzxnPiYjeGE7PC9nPiYjeGE7PGc+JiN4YTs8L2c+JiN4YTs8Zz4mI3hhOzwvZz4mI3hhOzxnPiYjeGE7PC9nPiYjeGE7PC9zdmc+;" vertex="1" parent="1">
          <mxGeometry x="481.2700000000001" y="364.25" width="48.95" height="52" as="geometry" />
        </mxCell>
        <mxCell id="wu8RO1vjM-PzpngTwkl7-13" style="edgeStyle=orthogonalEdgeStyle;rounded=0;orthogonalLoop=1;jettySize=auto;html=1;" edge="1" parent="1" source="wu8RO1vjM-PzpngTwkl7-4" target="9NGQ-bVeFmYUHEI6Ub1f-55">
          <mxGeometry relative="1" as="geometry">
            <Array as="points">
              <mxPoint x="680" y="380" />
              <mxPoint x="680" y="312" />
            </Array>
          </mxGeometry>
        </mxCell>
        <mxCell id="wu8RO1vjM-PzpngTwkl7-4" value="" style="verticalLabelPosition=bottom;html=1;verticalAlign=top;strokeWidth=1;dashed=0;shape=mxgraph.aws3d.dataCenter;fillColor=#ffffff;strokeColor=#5E5E5E;aspect=fixed;rounded=1;shadow=0;comic=0;fontSize=12" vertex="1" parent="1">
          <mxGeometry x="609.9999999999998" y="352.0600000000001" width="48.4" height="55.88" as="geometry" />
        </mxCell>
        <mxCell id="wu8RO1vjM-PzpngTwkl7-5" value="Cluster" style="text;html=1;resizable=0;autosize=1;align=center;verticalAlign=middle;points=[];fillColor=none;strokeColor=none;rounded=0;shadow=0;glass=0;sketch=0;fontStyle=1" vertex="1" parent="1">
          <mxGeometry x="604.2" y="310.51000000000005" width="60" height="20" as="geometry" />
        </mxCell>
        <mxCell id="wu8RO1vjM-PzpngTwkl7-6" value="Ducttape" style="text;html=1;resizable=0;autosize=1;align=center;verticalAlign=middle;points=[];fillColor=none;strokeColor=none;rounded=0;shadow=0;glass=0;sketch=0;fontStyle=1" vertex="1" parent="1">
          <mxGeometry x="470.73999999999995" y="416.25" width="70" height="20" as="geometry" />
        </mxCell>
        <mxCell id="wu8RO1vjM-PzpngTwkl7-11" value="" style="endArrow=classic;html=1;rounded=0;" edge="1" parent="1">
          <mxGeometry width="50" height="50" relative="1" as="geometry">
            <mxPoint x="570" y="290" as="sourcePoint" />
            <mxPoint x="600" y="290" as="targetPoint" />
          </mxGeometry>
        </mxCell>
      </root>
    </mxGraphModel>
  </diagram>
</mxfile>
